<svg style="display: none;" xmlns="http://www.w3.org/2000/svg">
  <symbol viewBox="0 0 39 37" id="icon-house">
    <path d="M15.4015 33.2194H23.7549V21.0613H15.4015V33.2194ZM22.2408 31.7441H16.9155V22.5365H22.1886V31.7441H22.2408Z"/>
    <path d="M37.9036 20.0431L39 18.9748L33.8313 13.9386V0.203483H26.6265V6.91843L19.4739 0L0 19.0257L1.09639 20.094L5.16867 16.126V35.3552H3.13253V36.8305H36.494V35.3552H33.8313V16.0752L37.9036 20.0431ZM28.1406 1.72961H32.2651V12.4633L28.1406 8.44455V1.72961ZM32.3173 35.3043H6.73494V14.5999L19.4739 2.13657L32.2651 14.5999V35.3043H32.3173Z"/>
    <path d="M15.5582 13.8369C15.5582 16.0243 17.3855 17.8048 19.5783 17.8048C21.8233 17.8048 23.6506 16.0243 23.6506 13.8369C23.6506 11.6494 21.8233 9.9198 19.5783 9.9198C17.3333 9.9198 15.5582 11.6494 15.5582 13.8369ZM19.5783 11.2933C20.9879 11.2933 22.1888 12.4125 22.1888 13.8369C22.1888 15.2104 21.0402 16.3804 19.5783 16.3804C18.1687 16.3804 16.9679 15.2612 16.9679 13.8369C16.9679 12.4633 18.1687 11.2933 19.5783 11.2933Z"/>
    <path d="M10.3895 21.0613H8.82324V23.0452H10.3895V21.0613Z"/>
    <path d="M13.4698 21.0613H11.9036V23.0452H13.4698V21.0613Z"/>
    <path d="M10.3895 24.1128H8.82324V26.0968H10.3895V24.1128Z"/>
    <path d="M13.4698 24.1128H11.9036V26.0968H13.4698V24.1128Z"/>
    <path d="M27.0443 21.0613H25.478V23.0452H27.0443V21.0613Z"/>
    <path d="M30.1769 21.0613H28.6106V23.0452H30.1769V21.0613Z"/>
    <path d="M27.0443 24.1128H25.478V26.0968H27.0443V24.1128Z"/>
    <path d="M30.1769 24.1128H28.6106V26.0968H30.1769V24.1128Z"/>
  </symbol>

  <symbol viewBox="0 0 30 30" id="phone-icon">
    <path d="M7.3961 8.62432C7.31155 7.42623 7.57729 6.24606 8.2809 5.29684C8.8909 4.43632 9.68511 3.96636 10.6424 3.69172C11.4487 3.4525 11.9772 3.74561 12.2097 4.64204C12.5419 5.98224 13.016 7.3225 13.1881 8.73361C13.2425 9.35485 12.8408 10.2332 12.406 10.6856C11.3158 11.7589 11.5423 12.5399 12.3698 14.1643C12.6264 14.6881 13.0341 15.5934 13.8283 16.7919C14.6558 17.9992 15.0936 18.6472 16.1566 18.0975C17.3374 17.5035 18.198 17.8855 19.0889 18.8444C19.6928 19.5369 20.3572 20.1318 20.9612 20.8243C21.8339 21.8542 21.7946 22.5641 21.1121 23.2915C19.8831 24.6309 17.8538 25.0736 16.3439 24.1766C15.5104 23.6881 14.6799 23.0487 14.0186 22.303C11.1045 18.9825 9.00266 15.1212 7.73735 10.7632C7.53502 10.0265 7.4414 9.28104 7.3961 8.62432Z"/>
  </symbol>
 </svg>
